<svg id="Calque_1" data-name="Calque 1" xmlns="http://www.w3.org/2000/svg" viewBox="0 0 547.21 326.18"><defs><style>.cls-1{fill:#00c8ff;}</style></defs><title>pictos média 2</title><path class="cls-1" d="M421.45,299.49H179.9a12.42,12.42,0,0,1-12.4-12.4V115.74a12.3,12.3,0,0,1,12.29-12.29H421.45a12.41,12.41,0,0,1,12.4,12.4V287.09A12.42,12.42,0,0,1,421.45,299.49Zm0-12.5v0ZM180,287H421.36v-171H180Z"/><path class="cls-1" d="M243.32,256a54.51,54.51,0,1,1,54.51-54.51A54.57,54.57,0,0,1,243.32,256Zm0-96.53a42,42,0,1,0,42,42A42.07,42.07,0,0,0,243.32,159.45Z"/><path class="cls-1" d="M405.57,184h-91.9a6.25,6.25,0,1,1,0-12.49h91.9a6.25,6.25,0,1,1,0,12.49Z"/><path class="cls-1" d="M334.77,272.83A22.23,22.23,0,1,1,357,250.61,22.25,22.25,0,0,1,334.77,272.83Zm0-31.95a9.73,9.73,0,1,0,9.73,9.73A9.73,9.73,0,0,0,334.77,240.88Z"/><path class="cls-1" d="M389.6,272.83a22.23,22.23,0,1,1,22.22-22.22A22.25,22.25,0,0,1,389.6,272.83Zm0-31.95a9.73,9.73,0,1,0,9.73,9.73A9.73,9.73,0,0,0,389.6,240.88Z"/><path class="cls-1" d="M188.85,115.94A6.25,6.25,0,0,1,185,104.78l97.84-77a6.25,6.25,0,1,1,7.72,9.82l-97.83,77A6.25,6.25,0,0,1,188.85,115.94Z"/><path class="cls-1" d="M379.88,204.49a6.24,6.24,0,0,1-6.25-6.24V159.77a6.25,6.25,0,1,1,12.5,0v38.48A6.24,6.24,0,0,1,379.88,204.49Z"/><path class="cls-1" d="M421.45,299.49H179.9a12.42,12.42,0,0,1-12.4-12.4V115.74a12.3,12.3,0,0,1,12.29-12.29H421.45a12.41,12.41,0,0,1,12.4,12.4V287.09A12.42,12.42,0,0,1,421.45,299.49Zm0-12.5v0ZM180,287H421.36v-171H180Z"/><path class="cls-1" d="M243.32,256a54.51,54.51,0,1,1,54.51-54.51A54.57,54.57,0,0,1,243.32,256Zm0-96.53a42,42,0,1,0,42,42A42.07,42.07,0,0,0,243.32,159.45Z"/><path class="cls-1" d="M405.57,184h-91.9a6.25,6.25,0,1,1,0-12.49h91.9a6.25,6.25,0,1,1,0,12.49Z"/><path class="cls-1" d="M334.77,272.83A22.23,22.23,0,1,1,357,250.61,22.25,22.25,0,0,1,334.77,272.83Zm0-31.95a9.73,9.73,0,1,0,9.73,9.73A9.73,9.73,0,0,0,334.77,240.88Z"/><path class="cls-1" d="M389.6,272.83a22.23,22.23,0,1,1,22.22-22.22A22.25,22.25,0,0,1,389.6,272.83Zm0-31.95a9.73,9.73,0,1,0,9.73,9.73A9.73,9.73,0,0,0,389.6,240.88Z"/><path class="cls-1" d="M188.85,115.94A6.25,6.25,0,0,1,185,104.78l97.84-77a6.25,6.25,0,1,1,7.72,9.82l-97.83,77A6.25,6.25,0,0,1,188.85,115.94Z"/><path class="cls-1" d="M379.88,204.49a6.24,6.24,0,0,1-6.25-6.24V159.77a6.25,6.25,0,1,1,12.5,0v38.48A6.24,6.24,0,0,1,379.88,204.49Z"/><path class="cls-1" d="M421.45,299.49H179.9a12.42,12.42,0,0,1-12.4-12.4V115.74a12.3,12.3,0,0,1,12.29-12.29H421.45a12.41,12.41,0,0,1,12.4,12.4V287.09A12.42,12.42,0,0,1,421.45,299.49Zm0-12.5v0ZM180,287H421.36v-171H180Z"/><path class="cls-1" d="M243.32,256a54.51,54.51,0,1,1,54.51-54.51A54.57,54.57,0,0,1,243.32,256Zm0-96.53a42,42,0,1,0,42,42A42.07,42.07,0,0,0,243.32,159.45Z"/><path class="cls-1" d="M405.57,184h-91.9a6.25,6.25,0,1,1,0-12.49h91.9a6.25,6.25,0,1,1,0,12.49Z"/><path class="cls-1" d="M334.77,272.83A22.23,22.23,0,1,1,357,250.61,22.25,22.25,0,0,1,334.77,272.83Zm0-31.95a9.73,9.73,0,1,0,9.73,9.73A9.73,9.73,0,0,0,334.77,240.88Z"/><path class="cls-1" d="M389.6,272.83a22.23,22.23,0,1,1,22.22-22.22A22.25,22.25,0,0,1,389.6,272.83Zm0-31.95a9.73,9.73,0,1,0,9.73,9.73A9.73,9.73,0,0,0,389.6,240.88Z"/><path class="cls-1" d="M188.85,115.94A6.25,6.25,0,0,1,185,104.78l97.84-77a6.25,6.25,0,1,1,7.72,9.82l-97.83,77A6.25,6.25,0,0,1,188.85,115.94Z"/><path class="cls-1" d="M379.88,204.49a6.24,6.24,0,0,1-6.25-6.24V159.77a6.25,6.25,0,1,1,12.5,0v38.48A6.24,6.24,0,0,1,379.88,204.49Z"/></svg>