<svg id="Calque_1" data-name="Calque 1" xmlns="http://www.w3.org/2000/svg" viewBox="0 0 547.21 326.18"><defs><style>.cls-1{fill:#00c8ff;}</style></defs><title>pictos média 14</title><path class="cls-1" d="M172.64,301.09a25.8,25.8,0,0,1-25.78-25.75V50.19a25.81,25.81,0,0,1,25.78-25.76H398.13a25.8,25.8,0,0,1,25.78,25.76v174.5a7.5,7.5,0,0,1-15,0V50.19a10.78,10.78,0,0,0-10.78-10.76H172.64a10.79,10.79,0,0,0-10.78,10.76V275.34a10.78,10.78,0,0,0,10.78,10.75l181.16,0a7.5,7.5,0,0,1,0,15Z"/><path class="cls-1" d="M416.41,88.45h-262a7.5,7.5,0,0,1,0-15H416.41a7.5,7.5,0,0,1,0,15Z"/><ellipse class="cls-1" cx="335.99" cy="57.73" rx="8.52" ry="8.51"/><ellipse class="cls-1" cx="361.02" cy="57.73" rx="8.52" ry="8.51"/><ellipse class="cls-1" cx="387.27" cy="57.73" rx="8.52" ry="8.51"/><path class="cls-1" d="M397.67,301.09l-181.16,0a7.5,7.5,0,0,1,0-15h0l181.15,0a10.78,10.78,0,0,0,10.78-10.75V50.19a10.79,10.79,0,0,0-10.78-10.76H172.18A10.79,10.79,0,0,0,161.4,50.19v174.5a7.5,7.5,0,0,1-15,0V50.19a25.8,25.8,0,0,1,25.78-25.76H397.67a25.81,25.81,0,0,1,25.78,25.76V275.34A25.8,25.8,0,0,1,397.67,301.09Z"/><path class="cls-1" d="M416,88.45h-262a7.5,7.5,0,0,1,0-15H416a7.5,7.5,0,0,1,0,15Z"/><path class="cls-1" d="M273.67,216.56A41.37,41.37,0,1,1,315,175.19,41.42,41.42,0,0,1,273.67,216.56Zm0-76.93a35.56,35.56,0,1,0,35.56,35.56A35.6,35.6,0,0,0,273.67,139.63Z"/><path class="cls-1" d="M273.67,205a29.8,29.8,0,0,1-2.26-59.52c.75-.06,1.51-.09,2.26-.09a29.81,29.81,0,1,1,0,59.61Zm0-53.8c-.61,0-1.22,0-1.83.07a24,24,0,1,0,1.83-.07Z"/><path class="cls-1" d="M326.25,240a2.91,2.91,0,0,1-2.05-.85L293.75,208.7a2.9,2.9,0,1,1,4.1-4.11l28.4,28.4,4.28-4.28-28.15-28.15a2.91,2.91,0,0,1,4.11-4.11l30.2,30.2a2.9,2.9,0,0,1,0,4.11l-8.38,8.39A3,3,0,0,1,326.25,240Z"/></svg>