<?xml version="1.0" encoding="utf-8"?>
<!-- Generator: Adobe Illustrator 22.1.0, SVG Export Plug-In . SVG Version: 6.00 Build 0)  -->
<svg version="1.1" id="Calque_1" xmlns="http://www.w3.org/2000/svg" xmlns:xlink="http://www.w3.org/1999/xlink" x="0px" y="0px"
	 viewBox="0 0 547.2 326.2" style="enable-background:new 0 0 547.2 326.2;" xml:space="preserve">
<style type="text/css">
	.st0{fill:#00C8FF;}
</style>
<title>pictos média internet evaluant</title>
<path class="st0" d="M365.6,245.2h-168c-28.5,0-51.5-23.1-51.6-51.6V69.9c0-28.5,23.1-51.5,51.6-51.6h168
	c28.5,0,51.5,23.1,51.6,51.6v123.8C417.1,222.1,394.1,245.2,365.6,245.2z M197.6,33.1c-20.3,0-36.8,16.5-36.8,36.8v123.8
	c0,20.3,16.5,36.8,36.8,36.8h168c20.3,0,36.8-16.5,36.8-36.8V69.9c0-20.3-16.5-36.8-36.8-36.8H197.6z"/>
<rect x="153.5" y="178.9" class="st0" width="256.3" height="14.7"/>
<rect x="229.2" y="292.4" class="st0" width="104.6" height="14.7"/>
<rect x="246.3" y="237.9" class="st0" width="14.7" height="61.9"/>
<rect x="302.2" y="237.9" class="st0" width="14.7" height="61.9"/>
</svg>
