<?xml version="1.0" encoding="utf-8"?>
<!-- Generator: Adobe Illustrator 22.1.0, SVG Export Plug-In . SVG Version: 6.00 Build 0)  -->
<svg version="1.1" id="Calque_1" xmlns="http://www.w3.org/2000/svg" xmlns:xlink="http://www.w3.org/1999/xlink" x="0px" y="0px"
	 viewBox="0 0 547.2 326.2" style="enable-background:new 0 0 547.2 326.2;" xml:space="preserve">
<style type="text/css">
	.st0{fill:#00C8FF;}
</style>
<title>picto média 3</title>
<g>
	<path class="st0" d="M425.1,238.9H96c-5.4,0-9.8-4.4-9.8-9.8V44.2c0-5.4,4.4-9.8,9.8-9.8h369.4c5.4,0,9.8,4.4,9.8,9.8V138
		c0,4.1-3.4,7.8-7.5,7.8s-7.5-3.4-7.5-7.5V49.5H101.3v174.4h323.9c4.1,0,5.6,3.4,5.6,7.5S429.3,238.9,425.1,238.9z"/>
	<path class="st0" d="M320.8,285.5c-4.1,0-7.5-3.4-7.5-7.5v-43.3c0-4.1,3.4-7.5,7.5-7.5s7.5,3.4,7.5,7.5V278
		C328.3,282.2,325,285.5,320.8,285.5z"/>
	<path class="st0" d="M241,285.5c-4.1,0-7.5-3.4-7.5-7.5v-43.3c0-4.1,3.4-7.5,7.5-7.5s7.5,3.4,7.5,7.5V278
		C248.5,282.2,245.2,285.5,241,285.5z"/>
	<path class="st0" d="M393.2,291.7H168.7c-4.1,0-7.5-3.4-7.5-7.5s3.4-7.5,7.5-7.5h224.5c4.1,0,7.5,3.4,7.5,7.5
		S397.3,291.7,393.2,291.7z"/>
</g>
<path class="st0" d="M476.7,291.7h-34.8c-9.2,0-16.8-7.5-16.8-16.8V149c0-9.2,7.5-16.8,16.8-16.8h34.8c9.2,0,16.8,7.5,16.8,16.8v126
	C493.5,284.2,486,291.7,476.7,291.7z M441.9,145.8c-1.8,0-3.2,1.4-3.2,3.2v126c0,1.8,1.4,3.2,3.2,3.2h34.8c1.8,0,3.2-1.4,3.2-3.2
	V149c0-1.8-1.4-3.2-3.2-3.2H441.9z"/>
<path class="st0" d="M459.3,196.3c-10.3,0-18.6-8.4-18.6-18.6S449,159,459.3,159c10.3,0,18.6,8.4,18.6,18.6S469.6,196.3,459.3,196.3
	z M459.3,171.1c-3.6,0-6.6,3-6.6,6.6c0,3.6,3,6.6,6.6,6.6c3.6,0,6.6-3,6.6-6.6C465.9,174,462.9,171.1,459.3,171.1z"/>
<ellipse transform="matrix(0.2298 -0.9732 0.9732 0.2298 142.4209 600.1634)" class="st0" cx="450.4" cy="210.1" rx="6.7" ry="6.7"/>
<ellipse transform="matrix(0.2298 -0.9732 0.9732 0.2298 156.0911 617.4363)" class="st0" cx="468.1" cy="210.1" rx="6.7" ry="6.7"/>
<g>
	<g>
		<path class="st0" d="M232.9,216.6c-4.7,0-8.5-3.8-8.5-8.5c0-56.7-46.1-102.9-102.9-102.9c-4.7,0-8.5-3.8-8.5-8.5s3.8-8.5,8.5-8.5
			c66,0,119.8,53.7,119.8,119.8C241.4,212.8,237.6,216.6,232.9,216.6z"/>
	</g>
	<g>
		<path class="st0" d="M202.4,216.6c-4.7,0-8.5-3.8-8.5-8.5c0-39.9-32.5-72.4-72.4-72.4c-4.7,0-8.5-3.8-8.5-8.5s3.8-8.5,8.5-8.5
			c49.2,0,89.3,40.1,89.3,89.3C210.9,212.8,207.1,216.6,202.4,216.6z"/>
	</g>
	<g>
		<path class="st0" d="M171,216.6c-4.7,0-8.5-3.8-8.5-8.5c0-22.6-18.3-40.9-40.9-40.9c-4.7,0-8.5-3.8-8.5-8.5s3.8-8.5,8.5-8.5
			c31.9,0,57.8,25.9,57.8,57.8C179.4,212.8,175.6,216.6,171,216.6z"/>
	</g>
</g>
</svg>
