<svg id="Calque_1" data-name="Calque 1" xmlns="http://www.w3.org/2000/svg" viewBox="0 0 547.21 326.18"><defs><style>.cls-1{fill:#00c8ff;}</style></defs><title>pictos média 10</title><path class="cls-1" d="M324.89,295.36H231.17a25.73,25.73,0,0,1-25.7-25.7V59.17a25.73,25.73,0,0,1,25.7-25.7h93.72a25.73,25.73,0,0,1,25.7,25.7V70.58a6.26,6.26,0,1,1-12.51,0V59.17A13.2,13.2,0,0,0,324.89,46H231.17A13.21,13.21,0,0,0,218,59.17V269.66a13.21,13.21,0,0,0,13.19,13.19h93.72a13.2,13.2,0,0,0,13.19-13.19V235.73a6.26,6.26,0,1,1,12.51,0v33.93A25.73,25.73,0,0,1,324.89,295.36Z"/><path class="cls-1" d="M341,76.84H211.72a6.26,6.26,0,0,1,0-12.51H341a6.26,6.26,0,1,1,0,12.51Z"/><path class="cls-1" d="M341.84,242H211.72a6.26,6.26,0,0,1,0-12.51H341.84a6.26,6.26,0,0,1,0,12.51Z"/><path class="cls-1" d="M289.15,269.51H266.91a6.26,6.26,0,0,1,0-12.52h22.24a6.26,6.26,0,1,1,0,12.52Z"/><path class="cls-1" d="M324.89,295.36H231.17a25.73,25.73,0,0,1-25.7-25.7V235.73a6.26,6.26,0,1,1,12.51,0v33.93a13.21,13.21,0,0,0,13.19,13.19h93.72a13.2,13.2,0,0,0,13.19-13.19V59.17A13.2,13.2,0,0,0,324.89,46H231.17A13.21,13.21,0,0,0,218,59.17V70.58a6.26,6.26,0,1,1-12.51,0V59.17a25.73,25.73,0,0,1,25.7-25.7h93.72a25.73,25.73,0,0,1,25.7,25.7V269.66A25.73,25.73,0,0,1,324.89,295.36Z"/><path class="cls-1" d="M344.34,76.84H215.06a6.26,6.26,0,0,1,0-12.51H344.34a6.26,6.26,0,0,1,0,12.51Z"/><path class="cls-1" d="M344.34,242H214.23a6.26,6.26,0,1,1,0-12.51H344.34a6.26,6.26,0,0,1,0,12.51Z"/><path class="cls-1" d="M289.15,269.51H266.91a6.26,6.26,0,0,1,0-12.52h22.24a6.26,6.26,0,1,1,0,12.52Z"/></svg>