<svg id="Calque_1" data-name="Calque 1" xmlns="http://www.w3.org/2000/svg" viewBox="0 0 547.21 326.18"><defs><style>.cls-1{fill:#00c8ff;}</style></defs><title>pictos média 16</title><path class="cls-1" d="M368.62,236.79H178.3a44.66,44.66,0,0,1-44.6-44.61v-110a44.65,44.65,0,0,1,44.6-44.6H368.62a44.66,44.66,0,0,1,44.61,44.6v110A44.66,44.66,0,0,1,368.62,236.79ZM178.3,52.42a29.77,29.77,0,0,0-29.73,29.73v110a29.77,29.77,0,0,0,29.73,29.74H368.62a29.77,29.77,0,0,0,29.74-29.74v-110a29.77,29.77,0,0,0-29.74-29.73Z"/><path class="cls-1" d="M227.36,288.83h91.18a12.91,12.91,0,0,0,11.31-19.14l-22.19-40.34H245.21l-28,40A12.38,12.38,0,0,0,227.36,288.83Z"/><circle class="cls-1" cx="191.92" cy="104.69" r="20.06"/><circle class="cls-1" cx="272.46" cy="139.39" r="20.06"/><circle class="cls-1" cx="351.53" cy="87.6" r="20.06"/><rect class="cls-1" x="223.27" y="79.56" width="14.87" height="84.97" transform="translate(25.1 282.81) rotate(-65.9)"/><rect class="cls-1" x="270.6" y="107.3" width="88.13" height="14.87" transform="translate(-11.41 191.24) rotate(-33.24)"/><path class="cls-1" d="M182,151.89l-2.81,45.48c-.47,7.69,7.15,14.14,16.72,14.14h156c9.24,0,16.73-6,16.73-13.47v-46.7c0-7.66-7.92-13.77-17.42-13.46l-26.89.89a17.92,17.92,0,0,0-13.61,6.46c-5.62,7.31-17.49,18.47-37.24,17.8-20.62-.7-35.33-12.31-42.22-19.1a18.34,18.34,0,0,0-12.84-4.84H198.69C189.77,139.09,182.42,144.72,182,151.89Z"/></svg>