<?xml version="1.0" encoding="utf-8"?>
<!-- Generator: Adobe Illustrator 22.1.0, SVG Export Plug-In . SVG Version: 6.00 Build 0)  -->
<svg version="1.1" id="Calque_1" xmlns="http://www.w3.org/2000/svg" xmlns:xlink="http://www.w3.org/1999/xlink" x="0px" y="0px"
	 viewBox="0 0 547.2 326.2" style="enable-background:new 0 0 547.2 326.2;" xml:space="preserve">
<style type="text/css">
	.st0{fill:#00C8FF;}
</style>
<title>pictos média 6</title>
<path class="st0" d="M379.5,239.5H180.1c-8.5,0-15.3-6.9-15.3-15.3V72.7c0-8.5,6.9-15.3,15.3-15.3h199.4c8.5,0,15.3,6.9,15.3,15.3
	v151.4C394.8,232.6,388,239.5,379.5,239.5z M180.1,70.7c-1.1,0-2,0.9-2,2v151.4c0,1.1,0.9,2,2,2h199.4c1.1,0,2-0.9,2-2V72.7
	c0-1.1-0.9-2-2-2H180.1z"/>
<rect x="220.1" y="239.5" class="st0" width="13.3" height="55.8"/>
<rect x="325.6" y="239.5" class="st0" width="13.3" height="55.8"/>
<path class="st0" d="M205.4,70.7h-9.3c-8.5,0-15.3-6.9-15.3-15.3v-9.3c0-8.5,6.9-15.3,15.3-15.3h9.3c8.5,0,15.3,6.9,15.3,15.3v9.3
	C220.7,63.9,213.9,70.7,205.4,70.7z M196.1,44.1c-1.1,0-2,0.9-2,2v9.3c0,1.1,0.9,2,2,2h9.3c1.1,0,2-0.9,2-2v-9.3c0-1.1-0.9-2-2-2
	H196.1z"/>
<path class="st0" d="M284.5,70.7h-9.3c-8.5,0-15.3-6.9-15.3-15.3v-9.3c0-8.5,6.9-15.3,15.3-15.3h9.3c8.5,0,15.3,6.9,15.3,15.3v9.3
	C299.8,63.9,292.9,70.7,284.5,70.7z M275.2,44.1c-1.1,0-2,0.9-2,2v9.3c0,1.1,0.9,2,2,2h9.3c1.1,0,2-0.9,2-2v-9.3c0-1.1-0.9-2-2-2
	H275.2z"/>
<path class="st0" d="M363.5,70.7h-9.3c-8.5,0-15.3-6.9-15.3-15.3v-9.3c0-8.5,6.9-15.3,15.3-15.3h9.3c8.5,0,15.3,6.9,15.3,15.3v9.3
	C378.9,63.9,372,70.7,363.5,70.7z M354.2,44.1c-1.1,0-2,0.9-2,2v9.3c0,1.1,0.9,2,2,2h9.3c1.1,0,2-0.9,2-2v-9.3c0-1.1-0.9-2-2-2
	H354.2z"/>
<path class="st0" d="M260.3,208.4h-28.6c-8.5,0-15.3-6.9-15.3-15.3v-27.8h13.3v27.8c0,1.1,0.9,2,2,2h28.6V208.4z"/>
<path class="st0" d="M326.2,208.4h-28.7v-13.3h28.6c1.1,0,2-0.9,2-2v-27.8h13.3v27.8C341.5,201.5,334.7,208.4,326.2,208.4z"/>
<path class="st0" d="M227,132.4h-13.4v-27.8c0-8.5,6.9-15.3,15.4-15.3h28.6v13.3H229c-1.1,0-2,0.9-2,2V132.4z"/>
<path class="st0" d="M341.5,132.4h-13.3v-27.8c0-1.1-0.9-2-2-2h-28.7V89.4h28.6c8.5,0,15.3,6.9,15.3,15.3V132.4z"/>
</svg>
