<svg id="Calque_1" data-name="Calque 1" xmlns="http://www.w3.org/2000/svg" viewBox="0 0 547.21 326.18"><defs><style>.cls-1{fill:#00c8ff;}</style></defs><title>picto média 1</title><path class="cls-1" d="M386.89,311.36h0l-79.18-.28h-96.2a56.7,56.7,0,0,1-56.63-56.64V39.27a17,17,0,0,1,17-17h186a17,17,0,0,1,17,17V85.91h44.78A9.37,9.37,0,0,1,429,95.28V274.61c0,.13,0,.25,0,.37-.67,17.47-15.46,36.17-36.4,36.17-1.06,0-2.1,0-3.14-.13A9.52,9.52,0,0,1,386.89,311.36ZM173.58,41V254.44a37.94,37.94,0,0,0,37.89,37.89H307.7l53,.19a36.34,36.34,0,0,1-4.7-17.91v-.15l.05-3.07V41ZM374.76,274.68a17.81,17.81,0,0,0,17.79,17.72c9.93,0,17.25-9.45,17.66-18V104.65h-35.4v167Z"/><path class="cls-1" d="M267.1,195H192.93a12.74,12.74,0,0,1-12.72-12.72V62.32a12.74,12.74,0,0,1,12.72-12.73H267.1a12.74,12.74,0,0,1,12.72,12.73V182.25A12.74,12.74,0,0,1,267.1,195ZM199,176.22h62.11V68.34H199Z"/><path class="cls-1" d="M338.32,77.09h-40a9.38,9.38,0,1,1,0-18.75h40a9.38,9.38,0,1,1,0,18.75Z"/><path class="cls-1" d="M338.32,106.4h-40a9.38,9.38,0,1,1,0-18.75h40a9.38,9.38,0,1,1,0,18.75Z"/><path class="cls-1" d="M338.32,135.71h-40a9.37,9.37,0,1,1,0-18.74h40a9.37,9.37,0,1,1,0,18.74Z"/><path class="cls-1" d="M337.51,165H297.46a9.38,9.38,0,0,1,0-18.75h40.05a9.38,9.38,0,0,1,0,18.75Z"/><path class="cls-1" d="M338.32,194.34h-40a9.38,9.38,0,1,1,0-18.75h40a9.38,9.38,0,1,1,0,18.75Z"/><path class="cls-1" d="M338.32,229.33H193.08a9.37,9.37,0,0,1,0-18.74H338.32a9.37,9.37,0,1,1,0,18.74Z"/><path class="cls-1" d="M338.32,263.46H193.08a9.38,9.38,0,0,1,0-18.75H338.32a9.38,9.38,0,1,1,0,18.75Z"/></svg>