<?xml version="1.0" encoding="utf-8"?>
<!-- Generator: Adobe Illustrator 22.1.0, SVG Export Plug-In . SVG Version: 6.00 Build 0)  -->
<svg version="1.1" id="Calque_1" xmlns="http://www.w3.org/2000/svg" xmlns:xlink="http://www.w3.org/1999/xlink" x="0px" y="0px"
	 viewBox="0 0 547.2 326.2" style="enable-background:new 0 0 547.2 326.2;" xml:space="preserve">
<style type="text/css">
	.st0{fill:#00C8FF;stroke:#00C8FF;stroke-width:4;stroke-miterlimit:10;}
	.st1{fill:#00C8FF;}
</style>
<title>pictos média Plurimedia-01</title>
<path class="st0" d="M474.2,54.3h-37c-1,0-1.8-0.8-1.8-1.8s0.8-1.8,1.8-1.8h37c1,0,1.8,0.8,1.8,1.8S475.2,54.3,474.2,54.3z"/>
<path class="st0" d="M455.7,72.8c-1,0-1.8-0.8-1.8-1.8V34c0-1,0.8-1.8,1.8-1.8s1.8,0.8,1.8,1.8v37C457.5,72,456.7,72.8,455.7,72.8z"
	/>
<path class="st0" d="M438.4,94.3H414c-0.7,0-1.2-0.5-1.2-1.2s0.5-1.2,1.2-1.2h24.4c0.7,0,1.2,0.5,1.2,1.2
	C439.6,93.7,439,94.3,438.4,94.3z"/>
<path class="st0" d="M426.2,106.4c-0.7,0-1.2-0.5-1.2-1.2V80.9c0-0.7,0.5-1.2,1.2-1.2s1.2,0.5,1.2,1.2v24.4
	C427.4,105.9,426.9,106.4,426.2,106.4z"/>
<path class="st1" d="M179.8,55h-49.7c-2,0-3.7-1.6-3.7-3.6s1.6-3.7,3.6-3.7l0,0h49.7c2,0,3.7,1.6,3.7,3.6
	C183.5,53.4,181.9,55,179.8,55L179.8,55z"/>
<path class="st1" d="M363,55h-49.6c-2,0-3.7-1.6-3.7-3.6s1.6-3.7,3.6-3.7l0,0H363c2,0,3.7,1.6,3.7,3.6C366.7,53.4,365.1,55,363,55
	C363.1,55,363.1,55,363,55L363,55z"/>
<path class="st1" d="M270.8,55h-49.7c-2,0-3.6-1.6-3.6-3.7c0-2,1.6-3.6,3.6-3.6h49.7c2,0,3.6,1.6,3.6,3.7
	C274.4,53.4,272.8,55,270.8,55z"/>
<circle class="st1" cx="245.9" cy="59.4" r="8"/>
<circle class="st1" cx="155" cy="59.4" r="8"/>
<circle class="st1" cx="338.2" cy="59.4" r="8"/>
<path class="st1" d="M325.9,282.2c-2.4,0-4.4-2-4.4-4.4l0,0V253c0.1-2.4,2.2-4.3,4.6-4.2c2.3,0.1,4.1,1.9,4.2,4.2v24.8
	C330.3,280.2,328.4,282.2,325.9,282.2C326,282.2,326,282.2,325.9,282.2z"/>
<path class="st1" d="M280.4,282.2c-2.4,0-4.4-2-4.4-4.4l0,0V253c0-2.4,2-4.4,4.4-4.4s4.4,2,4.4,4.4v24.8
	C284.8,280.2,282.9,282.2,280.4,282.2L280.4,282.2z"/>
<path class="st1" d="M429.5,304.1L429.5,304.1l-29.3-0.1h-35.5c-11.5,0-20.9-9.4-20.9-20.9v-79.4c0-3.5,2.8-6.3,6.3-6.3h68.7
	c3.5,0,6.3,2.8,6.3,6.3l0,0v17.2h16.5c1.9,0,3.5,1.5,3.5,3.5v66.3c-0.3,6.5-5.7,13.3-13.5,13.3c-0.4,0-0.8,0-1.1,0
	S429.9,304.1,429.5,304.1z M350.8,204.3v78.8c0,7.7,6.3,14,14,14h35.5l19.6,0.1c-1.1-2-1.7-4.3-1.7-6.6v-0.1v-1.1v-85.1L350.8,204.3
	L350.8,204.3z M425.1,290.6c0,3.6,2.9,6.5,6.6,6.5s6.4-3.5,6.5-6.6v-62.7h-13.1v61.7V290.6z"/>
<path class="st1" d="M385.5,261.1h-26.4c-2.5,0-4.5-2.1-4.5-4.6v-43.2c0-2.5,2-4.6,4.5-4.6h26.4c2.5,0,4.5,2.1,4.5,4.6v43.1
	C390,259.1,388,261.1,385.5,261.1z M361.2,254.4h22.1v-38.8h-22.1V254.4z"/>
<path class="st1" d="M411.6,217.6h-14.8c-1.9,0-3.5-1.5-3.5-3.5c0-1.9,1.5-3.5,3.5-3.5l0,0h14.8c1.9,0,3.5,1.6,3.5,3.5
	C415.1,216.1,413.5,217.6,411.6,217.6z"/>
<path class="st1" d="M411.6,228.4h-14.8c-1.9,0.1-3.5-1.4-3.7-3.3s1.4-3.5,3.3-3.7c0.1,0,0.2,0,0.4,0h14.8c1.9,0.1,3.4,1.7,3.3,3.7
	C414.8,226.9,413.4,228.3,411.6,228.4z"/>
<path class="st1" d="M411.6,239.3h-14.8c-1.9,0-3.5-1.5-3.5-3.5c0-1.9,1.5-3.5,3.5-3.5l0,0h14.8c1.9,0,3.5,1.6,3.5,3.5
	S413.5,239.3,411.6,239.3z"/>
<path class="st1" d="M411.3,250.1h-14.8c-1.9,0-3.5-1.5-3.5-3.5c0-1.9,1.5-3.5,3.5-3.5l0,0h14.8c1.9,0,3.5,1.6,3.5,3.5
	S413.2,250.1,411.3,250.1z"/>
<path class="st1" d="M411.6,260.9h-14.8c-1.9,0-3.5-1.5-3.5-3.5c0-1.9,1.5-3.5,3.5-3.5h14.8c1.9,0,3.5,1.5,3.5,3.5
	S413.5,260.9,411.6,260.9L411.6,260.9z"/>
<path class="st1" d="M411.6,273.8H358c-1.9-0.1-3.4-1.7-3.3-3.7c0.1-1.8,1.5-3.2,3.3-3.3h53.6c1.9,0.1,3.4,1.7,3.3,3.7
	C414.8,272.3,413.4,273.7,411.6,273.8z"/>
<path class="st1" d="M411.6,286.4H358c-1.9-0.1-3.4-1.7-3.3-3.7c0.1-1.8,1.5-3.2,3.3-3.3h53.6c1.9,0.1,3.4,1.7,3.3,3.7
	C414.8,284.9,413.4,286.3,411.6,286.4z"/>
<path class="st1" d="M193.5,286c-1.9,0-3.7-0.4-5.4-1.3l-22-10.7c-6.1-3-8.6-10.4-5.6-16.5l16.7-33.9c3-6.1,10.4-8.6,16.5-5.6
	l21.9,10.8c6.1,3,8.6,10.4,5.6,16.5l-16.7,33.9C202.5,283.4,198.2,286,193.5,286z M188.3,221.3c-2.9,0-5.6,1.6-6.8,4.3l-16.7,33.9
	c-1.8,3.8-0.3,8.3,3.5,10.2l21.9,10.8l0,0c3.8,1.8,8.3,0.3,10.2-3.5l16.7-33.9c1.9-3.8,0.3-8.3-3.4-10.2l0,0l-21.9-10.8
	C190.6,221.6,189.4,221.3,188.3,221.3L188.3,221.3z"/>
<path class="st1" d="M200.4,244.3c-0.3,0-0.7-0.1-1-0.2l-24-11.4c-1.2-0.5-1.9-1.8-1.4-3s1.8-1.9,3-1.4c0.1,0,0.2,0.1,0.3,0.2
	l24,11.4c1.2,0.6,1.7,2,1.1,3.2C202.1,243.7,201.3,244.3,200.4,244.3L200.4,244.3z"/>
<path class="st1" d="M196.6,252c-0.3,0-0.7-0.1-1-0.2l-24-11.4c-1.2-0.6-1.6-2.1-1-3.2c0.6-1.1,1.9-1.5,3-1.1l24,11.4
	c1.2,0.6,1.7,2,1.1,3.2C198.3,251.5,197.5,252,196.6,252z"/>
<path class="st1" d="M192.8,259.8c-0.3,0-0.7-0.1-1-0.2l-24-11.4c-1.2-0.5-1.9-1.8-1.4-3s1.8-1.9,3-1.4c0.1,0,0.2,0.1,0.3,0.2
	l24,11.4c1.2,0.6,1.7,2,1.2,3.1C194.6,259.3,193.7,259.8,192.8,259.8L192.8,259.8z"/>
<path class="st1" d="M189,267.6c-0.3,0-0.7-0.1-1-0.2L164,256c-1.2-0.5-1.9-1.8-1.4-3s1.8-1.9,3-1.4c0.1,0,0.2,0.1,0.3,0.2
	l24.1,11.4c1.2,0.6,1.7,2,1.1,3.2C190.8,267,189.9,267.6,189,267.6L189,267.6z"/>
<path class="st1" d="M216.2,252.5c-0.3,0-0.7-0.1-1-0.2l-8.8-4.3c-1.2-0.6-1.7-2-1.1-3.2s2-1.7,3.2-1.1l0,0l8.8,4.3
	c1.2,0.6,1.6,2,1.1,3.2C218,252,217.2,252.5,216.2,252.5L216.2,252.5L216.2,252.5z"/>
<path class="st1" d="M212.4,260.3c-0.4,0-0.7-0.1-1.1-0.2l-8.8-4.3c-1.2-0.5-1.7-1.9-1.2-3.1s1.9-1.7,3.1-1.2c0.1,0,0.1,0.1,0.2,0.1
	l8.8,4.3c1.2,0.6,1.7,2,1.1,3.2C214.1,259.7,213.3,260.2,212.4,260.3L212.4,260.3z"/>
<path class="st1" d="M208.6,268c-0.3,0-0.7-0.1-1-0.3l-8.8-4.3c-1.2-0.6-1.7-2-1.1-3.2c0.6-1.2,2-1.7,3.2-1.1l0,0l8.8,4.3
	c1.2,0.6,1.7,2,1.1,3.2C210.4,267.5,209.6,268,208.6,268L208.6,268z"/>
<path class="st1" d="M204.8,275.8c-0.3,0-0.7-0.1-1-0.2l-8.8-4.3c-1.2-0.6-1.6-2.1-1-3.2s1.9-1.5,3-1l8.8,4.3c1.2,0.6,1.6,2,1.1,3.2
	C206.5,275.3,205.7,275.8,204.8,275.8L204.8,275.8z"/>
<path class="st1" d="M193.6,304h-13.1c-1.3,0-2.4-1.1-2.4-2.4v-15.5c0-1.3,1.1-2.4,2.4-2.4c1.3,0,2.4,1.1,2.4,2.4v13.2h8.4v-14.6
	c0-1.3,1.1-2.4,2.4-2.4c1.3,0,2.4,1.1,2.4,2.4v16.9C196,302.9,194.9,304,193.6,304z"/>
<path class="st1" d="M187,295c-4.9,0-9-3.9-9-8.9c0-3.5,1.9-6.6,5-8.1c1.2-0.6,2.6-0.1,3.2,1.1c0.6,1.2,0.1,2.6-1.1,3.2
	c-2.1,1-3,3.5-2,5.6c0.7,1.5,2.2,2.4,3.9,2.4c2.3,0,4.2-1.9,4.2-4.2c0-0.3,0-0.6-0.1-0.9c-0.2-1.3,0.6-2.5,1.9-2.7
	c1.2-0.2,2.4,0.5,2.7,1.7c0.1,0.6,0.2,1.3,0.2,1.9C195.9,291,192,295,187,295z"/>
<path class="st1" d="M344.3,276.9H239c-0.1,0-0.3,0-0.4,0c-2.4,0.1-4.3,2.2-4.2,4.6s2.2,4.3,4.6,4.2h105.3L344.3,276.9z"/>
<g>
	<path class="st1" d="M174.4,229.8H106c-0.1,0-0.3,0-0.4,0c-2.1,0.1-3.6,1.7-3.5,3.8s1.8,3.6,3.8,3.5H171L174.4,229.8z"/>
</g>
<g>
	<polygon class="st1" points="217.7,246.8 214.1,255.6 344.2,255.6 344.1,246.8 	"/>
	<path class="st1" d="M408.4,138.6H197.5c-3.2,0-5.7,2.6-5.7,5.7v77.2l8.8,4l0.1-78.2h204.7v50h8.7v-53.1
		C414.1,141.1,411.5,138.6,408.4,138.6z"/>
</g>
<path class="st1" d="M186.6,221.5h3.3c-0.6-0.1-1.1-0.2-1.6-0.2C187.7,221.3,187.2,221.4,186.6,221.5z"/>
<g>
	<path class="st1" d="M191.8,214.3h-68.7c-7.5-0.1-13.6-6.1-13.6-13.6V44c0.1-7.4,6.1-13.5,13.6-13.5h245.6c7.4,0,13.5,6,13.5,13.5
		v94.6h7.4V44c-0.1-11.6-9.4-20.9-20.9-20.9H123.1c-11.6,0.1-20.9,9.4-20.9,20.9v156.6c0.1,11.6,9.4,20.9,20.9,20.9h55.4
		c3.1-4,8.4-5.7,13.3-4.2V214.3z"/>
</g>
</svg>
