<svg id="Calque_1" data-name="Calque 1" xmlns="http://www.w3.org/2000/svg" viewBox="0 0 547.21 326.18"><defs><style>.cls-1{fill:#00c8ff;}</style></defs><title>pictos audio digital</title><path class="cls-1" d="M303.92,247.42H81a4,4,0,0,1-4-4V101.5a4,4,0,0,1,4-4H272.16a4,4,0,1,1,0,8H85.07V239.37H299.9V145.73a4,4,0,0,1,8.05,0V243.4A4,4,0,0,1,303.92,247.42Z"/><path class="cls-1" d="M313.13,290.36H66.22a10.86,10.86,0,0,1-10.84-10.84V267.4a10.86,10.86,0,0,1,10.84-10.84H172.37a4,4,0,0,1,4,4v4H203v-4a4,4,0,0,1,4-4H313.13A10.85,10.85,0,0,1,324,267.4v12.12A10.85,10.85,0,0,1,313.13,290.36ZM66.22,264.6a2.8,2.8,0,0,0-2.79,2.8v12.12a2.79,2.79,0,0,0,2.79,2.79H313.13a2.8,2.8,0,0,0,2.8-2.79V267.4a2.81,2.81,0,0,0-2.8-2.8H211v4a4,4,0,0,1-4,4H172.37a4,4,0,0,1-4-4v-4Z"/><path class="cls-1" d="M193,122h0a9.26,9.26,0,0,1-9.26-9.25V101.5h18.51v11.2A9.25,9.25,0,0,1,193,122Z"/><path class="cls-1" d="M303.92,227.27H81a4,4,0,0,1,0-8.05H303.92a4,4,0,1,1,0,8.05Z"/><path class="cls-1" d="M219.51,194.86a14,14,0,1,1,14-14A14,14,0,0,1,219.51,194.86Zm0-19.87a5.91,5.91,0,1,0,5.91,5.91A5.92,5.92,0,0,0,219.51,175Z"/><path class="cls-1" d="M268.14,194.86a14,14,0,1,1,14-14A14,14,0,0,1,268.14,194.86Zm0-19.87a5.91,5.91,0,1,0,5.91,5.91A5.92,5.92,0,0,0,268.14,175Z"/><path class="cls-1" d="M278.08,184.92a4,4,0,0,1-4-4V131.44H233.47V180.9a4,4,0,0,1-8.05,0V127.41a4,4,0,0,1,4-4h48.64a4,4,0,0,1,4,4V180.9A4,4,0,0,1,278.08,184.92Z"/><path class="cls-1" d="M307.24,121.43a14,14,0,1,1,14-14A14,14,0,0,1,307.24,121.43Zm0-19.88a5.92,5.92,0,1,0,5.91,5.91A5.92,5.92,0,0,0,307.24,101.55Z"/><path class="cls-1" d="M317.18,111.49a4,4,0,0,1-4-4V80.06A14.68,14.68,0,0,1,327.81,65.4a4,4,0,1,1,0,8,6.62,6.62,0,0,0-6.61,6.61v27.4A4,4,0,0,1,317.18,111.49Z"/><path class="cls-1" d="M226.8,174.8a5.07,5.07,0,0,0-6.17-3.5,11.06,11.06,0,0,0-4.78,3.19,4.89,4.89,0,0,0-1.8,2.93,9.85,9.85,0,0,0-.39,1.12,10.69,10.69,0,0,0,2.19,9.9c1.69,2.11,5.32,1.76,7.08,0a4.63,4.63,0,0,0,1.38-4A10.34,10.34,0,0,0,226.8,174.8Z"/><path class="cls-1" d="M222.84,181.51v0l0,0Z"/><path class="cls-1" d="M271.43,172.19a6.87,6.87,0,0,0-4.68,2.1c-.2,0-.41,0-.62,0a4.23,4.23,0,0,0-1,.11,6.62,6.62,0,0,0-2.46.78,7,7,0,0,0-2.48,2.43,7.48,7.48,0,0,0-1,3.86,7.39,7.39,0,0,0,2.08,5,7.11,7.11,0,0,0,3,1.77,6.92,6.92,0,0,0,2.75.13,5.9,5.9,0,0,0,4.46,1.85,6.51,6.51,0,0,0,6.4-6.4v-5.24C277.83,175.25,274.88,172,271.43,172.19Z"/><path class="cls-1" d="M313.64,108.41a9.91,9.91,0,0,0,.88-2.2c1.22-4.48-4.86-7.3-8.17-4.41a4.78,4.78,0,0,0-1-.3c-2.36-.49-5.65.65-6.08,3.12a7,7,0,0,0,1,5.43,7.74,7.74,0,0,0,3.88,2.88,8,8,0,0,0,6.86,3.72c2.59,0,5.06-2,4.94-4.47A4.68,4.68,0,0,0,313.64,108.41Z"/><path class="cls-1" d="M352.55,93.15V41.88a14.08,14.08,0,0,1,14.06-14.06H481.77a14.08,14.08,0,0,1,14.06,14.06V93.15a14.08,14.08,0,0,1-14.06,14.06h-6.25a3.42,3.42,0,1,1,0-6.84h6.25A7.23,7.23,0,0,0,489,93.15V41.88a7.23,7.23,0,0,0-7.21-7.22H366.61a7.23,7.23,0,0,0-7.21,7.22V93.15a7.23,7.23,0,0,0,7.21,7.22h18.57a3.42,3.42,0,1,1,0,6.84H366.61A14.08,14.08,0,0,1,352.55,93.15Z"/><path class="cls-1" d="M352.55,94.14V42.87a14.08,14.08,0,0,1,14.06-14.06h18.57a3.42,3.42,0,1,1,0,6.84H366.61a7.23,7.23,0,0,0-7.21,7.22V94.14a7.23,7.23,0,0,0,7.21,7.22H481.77A7.23,7.23,0,0,0,489,94.14V42.87a7.23,7.23,0,0,0-7.21-7.22h-6.25a3.42,3.42,0,1,1,0-6.84h6.25a14.08,14.08,0,0,1,14.06,14.06V94.14a14.08,14.08,0,0,1-14.06,14.06H366.61A14.08,14.08,0,0,1,352.55,94.14Z"/><path class="cls-1" d="M472.1,102V31.24a3.42,3.42,0,0,1,6.84,0V102a3.42,3.42,0,1,1-6.84,0Z"/><path class="cls-1" d="M381.76,102.42V31.24a3.42,3.42,0,0,1,6.84,0v71.18a3.42,3.42,0,0,1-6.84,0Z"/><path class="cls-1" d="M366.7,73.6V61.43a3.42,3.42,0,0,1,6.84,0V73.6a3.42,3.42,0,0,1-6.84,0Z"/><path class="cls-1" d="M417.28,85.46a6.94,6.94,0,1,1,6.93-6.94A6.94,6.94,0,0,1,417.28,85.46Zm0-9.6a2.66,2.66,0,1,0,2.66,2.66A2.67,2.67,0,0,0,417.28,75.86Z"/><path class="cls-1" d="M440.76,85.46a6.94,6.94,0,1,1,6.93-6.94A6.94,6.94,0,0,1,440.76,85.46Zm0-9.6a2.66,2.66,0,1,0,2.66,2.66A2.67,2.67,0,0,0,440.76,75.86Z"/><path class="cls-1" d="M445.56,80.66a2.14,2.14,0,0,1-2.14-2.14V54.84H424.21V78.52a2.14,2.14,0,1,1-4.27,0V52.7a2.14,2.14,0,0,1,2.14-2.14h23.48a2.13,2.13,0,0,1,2.13,2.14V78.52A2.13,2.13,0,0,1,445.56,80.66Z"/></svg>