<svg id="Calque_1" data-name="Calque 1" xmlns="http://www.w3.org/2000/svg" viewBox="0 0 547.21 326.18"><defs><style>.cls-1{fill:#00c8ff;}</style></defs><title>pictos média 13</title><path class="cls-1" d="M273.89,189.47a36.4,36.4,0,0,1-24.38-9.66L122.1,65.61A9.07,9.07,0,0,1,134.21,52.1L261.62,166.3c7.58,6.8,17,6.79,24.57,0l127-114.17A9.07,9.07,0,0,1,425.34,65.6l-127,114.18A36.44,36.44,0,0,1,273.89,189.47Z"/><path class="cls-1" d="M408.65,279.36H139.19a23.75,23.75,0,0,1-23.73-23.72v-193a16.22,16.22,0,0,1,7-13.32l2.33-1.62h298.3l2.33,1.62a16.19,16.19,0,0,1,7,13.32v193A23.75,23.75,0,0,1,408.65,279.36ZM133.61,65.8V255.64a5.59,5.59,0,0,0,5.58,5.58H408.65a5.59,5.59,0,0,0,5.58-5.58V65.8Z"/></svg>