<?xml version="1.0" encoding="utf-8"?>
<!-- Generator: Adobe Illustrator 22.1.0, SVG Export Plug-In . SVG Version: 6.00 Build 0)  -->
<svg version="1.1" id="Calque_1" xmlns="http://www.w3.org/2000/svg" xmlns:xlink="http://www.w3.org/1999/xlink" x="0px" y="0px"
	 viewBox="0 0 547.2 326.2" style="enable-background:new 0 0 547.2 326.2;" xml:space="preserve">
<style type="text/css">
	.st0{fill:#00C8FF;}
</style>
<title>pictos média Plurimedia-01</title>
<path class="st0" d="M179.8,61h-49.7c-2,0-3.7-1.6-3.7-3.6s1.6-3.7,3.6-3.7l0,0h49.7c2,0,3.7,1.6,3.7,3.6
	C183.5,59.4,181.9,61,179.8,61L179.8,61z"/>
<path class="st0" d="M363,61h-49.6c-2,0-3.7-1.6-3.7-3.6s1.6-3.7,3.6-3.7l0,0H363c2,0,3.7,1.6,3.7,3.6C366.7,59.4,365.1,61,363,61
	C363.1,61,363.1,61,363,61L363,61z"/>
<path class="st0" d="M270.8,61h-49.7c-2,0-3.6-1.6-3.6-3.7c0-2,1.6-3.6,3.6-3.6h49.7c2,0,3.6,1.6,3.6,3.7
	C274.4,59.4,272.8,61,270.8,61z"/>
<circle class="st0" cx="245.9" cy="65.4" r="8"/>
<circle class="st0" cx="155" cy="65.4" r="8"/>
<circle class="st0" cx="338.2" cy="65.4" r="8"/>
<path class="st0" d="M325.9,288.2c-2.4,0-4.4-2-4.4-4.4l0,0V259c0.1-2.4,2.2-4.3,4.6-4.2c2.3,0.1,4.1,1.9,4.2,4.2v24.8
	C330.3,286.2,328.4,288.2,325.9,288.2C326,288.2,326,288.2,325.9,288.2z"/>
<path class="st0" d="M280.4,288.2c-2.4,0-4.4-2-4.4-4.4l0,0V259c0-2.4,2-4.4,4.4-4.4s4.4,2,4.4,4.4v24.8
	C284.8,286.2,282.9,288.2,280.4,288.2L280.4,288.2z"/>
<path class="st0" d="M429.5,310.1L429.5,310.1l-29.3-0.1h-35.5c-11.5,0-20.9-9.4-20.9-20.9v-79.4c0-3.5,2.8-6.3,6.3-6.3h68.7
	c3.5,0,6.3,2.8,6.3,6.3l0,0v17.2h16.5c1.9,0,3.5,1.5,3.5,3.5v66.3c-0.3,6.5-5.7,13.3-13.5,13.3c-0.4,0-0.8,0-1.1,0
	S429.9,310.1,429.5,310.1z M350.8,210.3v78.8c0,7.7,6.3,14,14,14h35.5l19.6,0.1c-1.1-2-1.7-4.3-1.7-6.6v-0.1v-1.1v-85.1L350.8,210.3
	L350.8,210.3z M425.1,296.6c0,3.6,2.9,6.5,6.6,6.5s6.4-3.5,6.5-6.6v-62.7h-13.1v61.7V296.6z"/>
<path class="st0" d="M385.5,267.1h-26.4c-2.5,0-4.5-2.1-4.5-4.6v-43.2c0-2.5,2-4.6,4.5-4.6h26.4c2.5,0,4.5,2.1,4.5,4.6v43.1
	C390,265.1,388,267.1,385.5,267.1z M361.2,260.4h22.1v-38.8h-22.1V260.4z"/>
<path class="st0" d="M411.6,223.6h-14.8c-1.9,0-3.5-1.5-3.5-3.5c0-1.9,1.5-3.5,3.5-3.5l0,0h14.8c1.9,0,3.5,1.6,3.5,3.5
	C415.1,222.1,413.5,223.6,411.6,223.6z"/>
<path class="st0" d="M411.6,234.4h-14.8c-1.9,0.1-3.5-1.4-3.7-3.3s1.4-3.5,3.3-3.7c0.1,0,0.2,0,0.4,0h14.8c1.9,0.1,3.4,1.7,3.3,3.7
	C414.8,232.9,413.4,234.3,411.6,234.4z"/>
<path class="st0" d="M411.6,245.3h-14.8c-1.9,0-3.5-1.5-3.5-3.5c0-1.9,1.5-3.5,3.5-3.5l0,0h14.8c1.9,0,3.5,1.6,3.5,3.5
	S413.5,245.3,411.6,245.3z"/>
<path class="st0" d="M411.3,256.1h-14.8c-1.9,0-3.5-1.5-3.5-3.5c0-1.9,1.5-3.5,3.5-3.5l0,0h14.8c1.9,0,3.5,1.6,3.5,3.5
	S413.2,256.1,411.3,256.1z"/>
<path class="st0" d="M411.6,266.9h-14.8c-1.9,0-3.5-1.5-3.5-3.5c0-1.9,1.5-3.5,3.5-3.5h14.8c1.9,0,3.5,1.5,3.5,3.5
	S413.5,266.9,411.6,266.9L411.6,266.9z"/>
<path class="st0" d="M411.6,279.8H358c-1.9-0.1-3.4-1.7-3.3-3.7c0.1-1.8,1.5-3.2,3.3-3.3h53.6c1.9,0.1,3.4,1.7,3.3,3.7
	C414.8,278.3,413.4,279.7,411.6,279.8z"/>
<path class="st0" d="M411.6,292.4H358c-1.9-0.1-3.4-1.7-3.3-3.7c0.1-1.8,1.5-3.2,3.3-3.3h53.6c1.9,0.1,3.4,1.7,3.3,3.7
	C414.8,290.9,413.4,292.3,411.6,292.4z"/>
<path class="st0" d="M193.5,292c-1.9,0-3.7-0.4-5.4-1.3l-22-10.7c-6.1-3-8.6-10.4-5.6-16.5l16.7-33.9c3-6.1,10.4-8.6,16.5-5.6
	l21.9,10.8c6.1,3,8.6,10.4,5.6,16.5l-16.7,33.9C202.5,289.4,198.2,292,193.5,292z M188.3,227.3c-2.9,0-5.6,1.6-6.8,4.3l-16.7,33.9
	c-1.8,3.8-0.3,8.3,3.5,10.2l21.9,10.8l0,0c3.8,1.8,8.3,0.3,10.2-3.5l16.7-33.9c1.9-3.8,0.3-8.3-3.4-10.2l0,0l-21.9-10.8
	C190.6,227.6,189.4,227.3,188.3,227.3L188.3,227.3z"/>
<path class="st0" d="M200.4,250.3c-0.3,0-0.7-0.1-1-0.2l-24-11.4c-1.2-0.5-1.9-1.8-1.4-3s1.8-1.9,3-1.4c0.1,0,0.2,0.1,0.3,0.2
	l24,11.4c1.2,0.6,1.7,2,1.1,3.2C202.1,249.7,201.3,250.3,200.4,250.3L200.4,250.3z"/>
<path class="st0" d="M196.6,258c-0.3,0-0.7-0.1-1-0.2l-24-11.4c-1.2-0.6-1.6-2.1-1-3.2c0.6-1.1,1.9-1.5,3-1.1l24,11.4
	c1.2,0.6,1.7,2,1.1,3.2C198.3,257.5,197.5,258,196.6,258z"/>
<path class="st0" d="M192.8,265.8c-0.3,0-0.7-0.1-1-0.2l-24-11.4c-1.2-0.5-1.9-1.8-1.4-3s1.8-1.9,3-1.4c0.1,0,0.2,0.1,0.3,0.2
	l24,11.4c1.2,0.6,1.7,2,1.2,3.1C194.6,265.3,193.7,265.8,192.8,265.8L192.8,265.8z"/>
<path class="st0" d="M189,273.6c-0.3,0-0.7-0.1-1-0.2L164,262c-1.2-0.5-1.9-1.8-1.4-3s1.8-1.9,3-1.4c0.1,0,0.2,0.1,0.3,0.2
	l24.1,11.4c1.2,0.6,1.7,2,1.1,3.2C190.8,273,189.9,273.6,189,273.6L189,273.6z"/>
<path class="st0" d="M216.2,258.5c-0.3,0-0.7-0.1-1-0.2l-8.8-4.3c-1.2-0.6-1.7-2-1.1-3.2s2-1.7,3.2-1.1l0,0l8.8,4.3
	c1.2,0.6,1.6,2,1.1,3.2C218,258,217.2,258.5,216.2,258.5L216.2,258.5L216.2,258.5z"/>
<path class="st0" d="M212.4,266.3c-0.4,0-0.7-0.1-1.1-0.2l-8.8-4.3c-1.2-0.5-1.7-1.9-1.2-3.1s1.9-1.7,3.1-1.2c0.1,0,0.1,0.1,0.2,0.1
	l8.8,4.3c1.2,0.6,1.7,2,1.1,3.2C214.1,265.7,213.3,266.2,212.4,266.3L212.4,266.3z"/>
<path class="st0" d="M208.6,274c-0.3,0-0.7-0.1-1-0.3l-8.8-4.3c-1.2-0.6-1.7-2-1.1-3.2c0.6-1.2,2-1.7,3.2-1.1l0,0l8.8,4.3
	c1.2,0.6,1.7,2,1.1,3.2C210.4,273.5,209.6,274,208.6,274L208.6,274z"/>
<path class="st0" d="M204.8,281.8c-0.3,0-0.7-0.1-1-0.2l-8.8-4.3c-1.2-0.6-1.6-2.1-1-3.2s1.9-1.5,3-1l8.8,4.3c1.2,0.6,1.6,2,1.1,3.2
	C206.5,281.3,205.7,281.8,204.8,281.8L204.8,281.8z"/>
<path class="st0" d="M193.6,310h-13.1c-1.3,0-2.4-1.1-2.4-2.4v-15.5c0-1.3,1.1-2.4,2.4-2.4c1.3,0,2.4,1.1,2.4,2.4v13.2h8.4v-14.6
	c0-1.3,1.1-2.4,2.4-2.4c1.3,0,2.4,1.1,2.4,2.4v16.9C196,308.9,194.9,310,193.6,310z"/>
<path class="st0" d="M187,301c-4.9,0-9-3.9-9-8.9c0-3.5,1.9-6.6,5-8.1c1.2-0.6,2.6-0.1,3.2,1.1c0.6,1.2,0.1,2.6-1.1,3.2
	c-2.1,1-3,3.5-2,5.6c0.7,1.5,2.2,2.4,3.9,2.4c2.3,0,4.2-1.9,4.2-4.2c0-0.3,0-0.6-0.1-0.9c-0.2-1.3,0.6-2.5,1.9-2.7
	c1.2-0.2,2.4,0.5,2.7,1.7c0.1,0.6,0.2,1.3,0.2,1.9C195.9,297,192,301,187,301z"/>
<path class="st0" d="M344.3,282.9H239c-0.1,0-0.3,0-0.4,0c-2.4,0.1-4.3,2.2-4.2,4.6c0.1,2.4,2.2,4.3,4.6,4.2h105.3L344.3,282.9z"/>
<g>
	<path class="st0" d="M174.4,235.8H106c-0.1,0-0.3,0-0.4,0c-2.1,0.1-3.6,1.7-3.5,3.8c0.1,2.1,1.8,3.6,3.8,3.5H171L174.4,235.8z"/>
</g>
<g>
	<polygon class="st0" points="217.7,252.8 214.1,261.6 344.2,261.6 344.1,252.8 	"/>
	<path class="st0" d="M408.4,144.6H197.5c-3.2,0-5.7,2.6-5.7,5.7v77.2l8.8,4l0.1-78.2h204.7v50h8.7v-53.1
		C414.1,147.1,411.5,144.6,408.4,144.6z"/>
</g>
<path class="st0" d="M186.6,227.5h3.3c-0.6-0.1-1.1-0.2-1.6-0.2C187.7,227.3,187.2,227.4,186.6,227.5z"/>
<g>
	<path class="st0" d="M191.8,220.3h-68.7c-7.5-0.1-13.6-6.1-13.6-13.6V50c0.1-7.4,6.1-13.5,13.6-13.5h245.6c7.4,0,13.5,6,13.5,13.5
		v94.6h7.4V50c-0.1-11.6-9.4-20.9-20.9-20.9H123.1c-11.6,0.1-20.9,9.4-20.9,20.9v156.6c0.1,11.6,9.4,20.9,20.9,20.9h55.4
		c3.1-4,8.4-5.7,13.3-4.2V220.3z"/>
</g>
</svg>
