<?xml version="1.0" encoding="utf-8"?>
<!-- Generator: Adobe Illustrator 22.1.0, SVG Export Plug-In . SVG Version: 6.00 Build 0)  -->
<svg version="1.1" id="Calque_1" xmlns="http://www.w3.org/2000/svg" xmlns:xlink="http://www.w3.org/1999/xlink" x="0px" y="0px"
	 viewBox="0 0 547.2 326.2" style="enable-background:new 0 0 547.2 326.2;" xml:space="preserve">
<style type="text/css">
	.st0{fill:#00C8FF;}
	.st1{display:none;fill:#00C8FF;}
	.st2{fill:none;stroke:#00C8FF;stroke-width:13;stroke-miterlimit:10;}
</style>
<title>pictos média 11</title>
<path class="st0" d="M286.2,293.3c-68,0-123.3-58.4-123.3-130.2S218.3,33,286.2,33s123.3,58.4,123.3,130.2S354.2,293.3,286.2,293.3z
	 M286.2,45.2c-60.7,0-110,52.9-110,117.9S225.6,281,286.2,281s110-52.9,110-117.9S346.9,45.2,286.2,45.2L286.2,45.2z"/>
<path class="st1" d="M285.3,293.2c-36,0-55.4-67.1-55.4-130.1S249.3,33,285.3,33s55.4,67,55.4,130.1S321.2,293.2,285.3,293.2z
	 M285.3,45.2c-19.9,0-42.1,48.4-42.1,117.9s22.2,117.8,42.1,117.8s42.1-48.4,42.1-117.8S305.2,45.2,285.3,45.2L285.3,45.2z"/>
<rect x="169.6" y="157" class="st0" width="233.3" height="12.3"/>
<path class="st1" d="M273,115.4c-56.8,0-83.5-19.6-85.1-20.8l8.4-9.5c0.5,0.4,56.4,40.5,181.8-1l4.5,11.6
	C338,110.5,301.6,115.4,273,115.4z"/>
<path class="st2" d="M191.3,82.3c0,0,77.3,58.8,189.2,1.7"/>
<path class="st2" d="M380.5,241.7c0,0-77.3-58.8-189.2-1.7"/>
<ellipse class="st2" cx="286.2" cy="163.5" rx="52.7" ry="123.2"/>
</svg>
