<?xml version="1.0" encoding="utf-8"?>
<!-- Generator: Adobe Illustrator 22.1.0, SVG Export Plug-In . SVG Version: 6.00 Build 0)  -->
<svg version="1.1" id="Calque_1" xmlns="http://www.w3.org/2000/svg" xmlns:xlink="http://www.w3.org/1999/xlink" x="0px" y="0px"
	 viewBox="0 0 547.2 326.2" style="enable-background:new 0 0 547.2 326.2;" xml:space="preserve">
<style type="text/css">
	.st0{fill:#00C8FF;}
</style>
<title>picto média 3</title>
<g>
	<path class="st0" d="M466.8,239.9H93.6c-5.6,0-10.2-4.6-10.2-10.2V42.8c0-5.6,4.6-10.2,10.2-10.2h373.2c5.6,0,10.2,4.6,10.2,10.2
		v186.9C477,235.4,472.4,239.9,466.8,239.9z M99.4,223.9H461V48.6H99.4V223.9z"/>
	<path class="st0" d="M320.7,287c-4.4,0-8-3.6-8-8v-43.8c0-4.4,3.6-8,8-8s8,3.6,8,8V279C328.7,283.4,325.1,287,320.7,287z"/>
	<path class="st0" d="M240.1,287c-4.4,0-8-3.6-8-8v-43.8c0-4.4,3.6-8,8-8s8,3.6,8,8V279C248.1,283.4,244.5,287,240.1,287z"/>
	<path class="st0" d="M393.8,293.3H167.1c-4.4,0-8-3.6-8-8s3.6-8,8-8h226.7c4.4,0,8,3.6,8,8S398.2,293.3,393.8,293.3z"/>
</g>
</svg>
