<svg id="Calque_1" data-name="Calque 1" xmlns="http://www.w3.org/2000/svg" viewBox="0 0 547.21 326.18"><defs><style>.cls-1{fill:#00cbff;}</style></defs><title>picto paid search</title><path class="cls-1" d="M330.81,218.27H114.86a3.83,3.83,0,0,1-3.9-3.76V82a3.83,3.83,0,0,1,3.9-3.76H258.38l72.38-.81a4,4,0,0,1,2.79,1.08,3.71,3.71,0,0,1,1.16,2.68V214.51A3.83,3.83,0,0,1,330.81,218.27Zm-212-7.52H326.91V85l-68.47.77H118.76Z"/><path class="cls-1" d="M339.73,258.36H100.51A10.33,10.33,0,0,1,90,248.24V236.92a10.33,10.33,0,0,1,10.51-10.12H203.35a3.83,3.83,0,0,1,3.9,3.76v3.75H233v-3.75a3.83,3.83,0,0,1,3.9-3.76H339.73a10.33,10.33,0,0,1,10.5,10.12v11.32A10.33,10.33,0,0,1,339.73,258.36ZM100.51,234.31a2.66,2.66,0,0,0-2.71,2.61v11.32a2.66,2.66,0,0,0,2.71,2.61H339.73a2.66,2.66,0,0,0,2.7-2.61V236.92a2.66,2.66,0,0,0-2.7-2.61h-99v3.76a3.83,3.83,0,0,1-3.9,3.76H203.35a3.83,3.83,0,0,1-3.9-3.76v-3.76Z"/><path class="cls-1" d="M223.35,101.12h0a8.81,8.81,0,0,1-9-8.64V82h17.94V92.48A8.81,8.81,0,0,1,223.35,101.12Z"/><path class="cls-1" d="M330.81,199.45H114.86a3.76,3.76,0,1,1,0-7.51h216a3.76,3.76,0,1,1,0,7.51Z"/><path class="cls-1" d="M266.32,134.26H226.49a3.76,3.76,0,1,1,0-7.52h39.83a3.76,3.76,0,1,1,0,7.52Z"/><path class="cls-1" d="M306.16,152.16H226.49a3.76,3.76,0,1,1,0-7.52h79.67a3.76,3.76,0,1,1,0,7.52Z"/><path class="cls-1" d="M246.4,170.06H226.49a3.76,3.76,0,1,1,0-7.51H246.4a3.76,3.76,0,1,1,0,7.51Z"/><path class="cls-1" d="M169,175.33c-18.49,0-33.53-14.5-33.53-32.31s15-32.32,33.53-32.32a34.71,34.71,0,0,1,10.17,1.52,3.9,3.9,0,0,1,2.28,1.85,3.68,3.68,0,0,1,.25,2.87l-7.36,22.32h24.3a3.83,3.83,0,0,1,3.9,3.76C202.51,160.83,187.46,175.33,169,175.33Zm0-57.11c-14.19,0-25.73,11.12-25.73,24.8s11.54,24.8,25.73,24.8c12.87,0,23.56-9.15,25.44-21H169a3.93,3.93,0,0,1-3.14-1.54,3.61,3.61,0,0,1-.57-3.35L173,118.52A26.73,26.73,0,0,0,169,118.22Z"/><path class="cls-1" d="M169,175.33c-18.49,0-33.53-14.5-33.53-32.31s15-32.32,33.53-32.32,33.54,14.5,33.54,32.32S187.46,175.33,169,175.33Zm0-57.11c-14.19,0-25.73,11.12-25.73,24.8s11.54,24.8,25.73,24.8,25.74-11.13,25.74-24.8S183.16,118.22,169,118.22Z"/><path class="cls-1" d="M443.27,234.45H393.59A13.4,13.4,0,0,1,380,221.32V113.81a13.4,13.4,0,0,1,13.62-13.13h49.68a13.4,13.4,0,0,1,13.62,13.13v5.83a3.32,3.32,0,0,1-6.63,0v-5.83a6.88,6.88,0,0,0-7-6.74H393.59a6.88,6.88,0,0,0-7,6.74V221.32a6.88,6.88,0,0,0,7,6.74h49.68a6.88,6.88,0,0,0,7-6.74V204a3.32,3.32,0,0,1,6.63,0v17.33A13.4,13.4,0,0,1,443.27,234.45Z"/><path class="cls-1" d="M444.23,234.45H394.55a13.4,13.4,0,0,1-13.62-13.13V204a3.32,3.32,0,0,1,6.63,0v17.33a6.88,6.88,0,0,0,7,6.74h49.68a6.88,6.88,0,0,0,7-6.74V113.81a6.88,6.88,0,0,0-7-6.74H394.55a6.88,6.88,0,0,0-7,6.74v5.83a3.32,3.32,0,0,1-6.63,0v-5.83a13.4,13.4,0,0,1,13.62-13.13h49.68a13.4,13.4,0,0,1,13.62,13.13V221.32A13.4,13.4,0,0,1,444.23,234.45Z"/><path class="cls-1" d="M451.81,122.83H383.29a3.2,3.2,0,1,1,0-6.39h68.52a3.2,3.2,0,1,1,0,6.39Z"/><path class="cls-1" d="M452.25,207.18h-69a3.2,3.2,0,1,1,0-6.39h69a3.2,3.2,0,1,1,0,6.39Z"/><path class="cls-1" d="M424.32,221.24H412.54a3.2,3.2,0,1,1,0-6.39h11.78a3.2,3.2,0,1,1,0,6.39Z"/></svg>