<?xml version="1.0" encoding="utf-8"?>
<!-- Generator: Adobe Illustrator 22.1.0, SVG Export Plug-In . SVG Version: 6.00 Build 0)  -->
<svg version="1.1" id="Calque_1" xmlns="http://www.w3.org/2000/svg" xmlns:xlink="http://www.w3.org/1999/xlink" x="0px" y="0px"
	 viewBox="0 0 547.2 326.2" style="enable-background:new 0 0 547.2 326.2;" xml:space="preserve">
<style type="text/css">
	.st0{fill:#00C8FF;}
	.st1{fill:#00C8FF;stroke:#A84C97;stroke-width:15;stroke-linecap:round;stroke-linejoin:round;stroke-miterlimit:10;}
</style>
<title>pictos média 11</title>
<g>
	<path class="st0" d="M420.1,299H134.6c-4.1,0-7.5-3.4-7.5-7.5V126.8c0-4.1,3.4-7.5,7.5-7.5h285.5c4.1,0,7.5,3.4,7.5,7.5v164.7
		C427.6,295.6,424.2,299,420.1,299z M142.1,284h270.5V134.3H142.1V284z"/>
	<g>
		<path class="st0" d="M134.6,133.9c-1.6,0-3.1-0.5-4.4-1.4c-1.6-1.2-2.7-2.9-3-4.9l-7.5-46.1c-0.7-4.1,2.1-7.9,6.2-8.6l281.8-45.5
			c2-0.3,4,0.2,5.6,1.3c1.6,1.2,2.7,2.9,3,4.9l7.5,46.1c0.7,4.1-2.1,7.9-6.2,8.6l-281.8,45.5C135.4,133.8,135,133.9,134.6,133.9z
			 M135.7,86.5l5.1,31.3l267-43.2l-5.1-31.3L135.7,86.5z"/>
		<path class="st0" d="M179.7,125.7c-1.5,0-3.1-0.5-4.4-1.4l-52.6-38c-3.4-2.4-4.1-7.1-1.7-10.5c2.4-3.4,7.1-4.1,10.5-1.7l52.6,38
			c3.4,2.4,4.1,7.1,1.7,10.5C184.3,124.6,182,125.7,179.7,125.7z"/>
		<path class="st0" d="M238.5,116.2c-1.5,0-3.1-0.5-4.4-1.4l-52.6-38c-3.4-2.4-4.1-7.1-1.7-10.5c2.4-3.4,7.1-4.1,10.5-1.7l52.6,38
			c3.4,2.4,4.1,7.1,1.7,10.5C243.1,115.1,240.8,116.2,238.5,116.2z"/>
		<path class="st0" d="M414.7,87.7c-1.5,0-3.1-0.5-4.4-1.4l-52.6-38c-3.4-2.4-4.1-7.1-1.7-10.5c2.4-3.4,7.1-4.1,10.5-1.7l52.6,38
			c3.4,2.4,4.1,7.1,1.7,10.5C419.3,86.6,417,87.7,414.7,87.7z"/>
		<path class="st0" d="M355.9,97.2c-1.5,0-3.1-0.5-4.4-1.4l-52.6-38c-3.4-2.4-4.1-7.1-1.7-10.5s7.1-4.1,10.5-1.7l52.6,38
			c3.4,2.4,4.1,7.1,1.7,10.5C360.6,96.1,358.3,97.2,355.9,97.2z"/>
		<path class="st0" d="M297.2,106.7c-1.5,0-3.1-0.5-4.4-1.4l-52.6-38c-3.4-2.4-4.1-7.1-1.7-10.5c2.4-3.4,7.1-4.1,10.5-1.7l52.6,38
			c3.4,2.4,4.1,7.1,1.7,10.5C301.8,105.6,299.5,106.7,297.2,106.7z"/>
	</g>
	<path class="st0" d="M371.6,243.1h-188c-4.1,0-7.5-3.4-7.5-7.5s3.4-7.5,7.5-7.5h188c4.1,0,7.5,3.4,7.5,7.5S375.7,243.1,371.6,243.1
		z"/>
	<path class="st0" d="M420.1,183.7H134.6c-4.1,0-7.5-3.4-7.5-7.5s3.4-7.5,7.5-7.5h285.5c4.1,0,7.5,3.4,7.5,7.5
		S424.2,183.7,420.1,183.7z"/>
	<path class="st1" d="M180.4,174.6"/>
	<g>
		<path class="st0" d="M194.2,183.3c-1.9,0-3.8-0.7-5.3-2.2c-2.9-2.9-3-7.7,0-10.6l45.7-46c2.9-2.9,7.7-3,10.6,0
			c2.9,2.9,3,7.7,0,10.6l-45.7,46C198.1,182.6,196.1,183.3,194.2,183.3z"/>
		<path class="st0" d="M372.7,182.8c-1.9,0-3.8-0.7-5.3-2.2c-2.9-2.9-3-7.7,0-10.6l45.7-46c2.9-2.9,7.7-3,10.6,0
			c2.9,2.9,3,7.7,0,10.6l-45.7,46C376.6,182.1,374.6,182.8,372.7,182.8z"/>
		<path class="st0" d="M313.2,183c-1.9,0-3.8-0.7-5.3-2.2c-2.9-2.9-3-7.7,0-10.6l45.7-46c2.9-2.9,7.7-3,10.6,0c2.9,2.9,3,7.7,0,10.6
			l-45.7,46C317.1,182.3,315.1,183,313.2,183z"/>
		<path class="st0" d="M253.7,183.2c-1.9,0-3.8-0.7-5.3-2.2c-2.9-2.9-3-7.7,0-10.6l45.7-46c2.9-2.9,7.7-3,10.6,0
			c2.9,2.9,3,7.7,0,10.6L259,181C257.6,182.4,255.6,183.2,253.7,183.2z"/>
		<path class="st0" d="M136.3,182.8c-1.9,0-3.8-0.7-5.3-2.2c-2.9-2.9-3-7.7,0-10.6l45.7-46c2.9-2.9,7.7-3,10.6,0
			c2.9,2.9,3,7.7,0,10.6l-45.7,46C140.1,182.1,138.2,182.8,136.3,182.8z"/>
	</g>
</g>
</svg>
