<?xml version="1.0" encoding="utf-8"?>
<!-- Generator: Adobe Illustrator 22.1.0, SVG Export Plug-In . SVG Version: 6.00 Build 0)  -->
<svg version="1.1" id="Calque_1" xmlns="http://www.w3.org/2000/svg" xmlns:xlink="http://www.w3.org/1999/xlink" x="0px" y="0px"
	 viewBox="0 0 547.2 326.2" style="enable-background:new 0 0 547.2 326.2;" xml:space="preserve">
<style type="text/css">
	.st0{fill:#00C8FF;}
</style>
<title>pictos média 8</title>
<path class="st0" d="M279.4,206.1c-7,0-13.8-2.2-19.5-6.2l-105.3-75.1c-3.4-2.4-4.2-7.1-1.8-10.5c2.4-3.4,7.1-4.2,10.5-1.8
	l105.3,75.1c6.5,4.6,15.2,4.6,21.6,0l105-75.1c3.4-2.4,8.1-1.6,10.5,1.7c2.4,3.4,1.6,8.1-1.7,10.5l0,0l-105,75.1
	C293.3,204,286.4,206.2,279.4,206.1z"/>
<path class="st0" d="M390.8,301H168.1c-10.8,0-19.6-8.8-19.6-19.6V121.8c0-4.4,2.2-8.5,5.8-11L260,37.5c11.7-8.3,27.3-8.2,38.9,0
	l105.8,73.3c3.6,2.5,5.8,6.6,5.8,11v159.6C410.4,292.2,401.6,301,390.8,301z M163.4,122.6v158.8c0,2.5,2.1,4.6,4.6,4.6h222.7
	c2.5,0,4.6-2.1,4.6-4.6V122.6L290.2,49.8c-6.5-4.6-15.2-4.6-21.6,0L163.4,122.6z"/>
</svg>
